<svg width="54" height="54" xmlns="http://www.w3.org/2000/svg" xmlns:xlink="http://www.w3.org/1999/xlink" xml:space="preserve" overflow="hidden"><g transform="translate(-629 -12)"><path d="M661.625 19.3125 650.375 19.3125C648.511 19.3125 647 20.8235 647 22.6875L647 32.9081C647.003 36.8926 650.232 40.1219 654.217 40.125L657.783 40.125C661.768 40.1219 664.997 36.8926 665 32.9081L665 22.6875C665 20.8235 663.489 19.3125 661.625 19.3125ZM661.625 32.25 650.375 32.25 650.375 26.0625 661.625 26.0625ZM661.062 24.0938 650.938 24.0938C650.627 24.0938 650.375 23.8419 650.375 23.5312 650.375 23.2206 650.627 22.9688 650.938 22.9688L661.062 22.9688C661.373 22.9688 661.625 23.2206 661.625 23.5312 661.625 23.8419 661.373 24.0938 661.062 24.0938Z" stroke="#FFFFFF" stroke-width="0.5625" fill="#FFFFFF"/><path d="M650.375 49.125 661.625 49.125 661.625 41.52C658.337 44.1525 653.663 44.1525 650.375 41.52Z" stroke="#FFFFFF" stroke-width="0.5625" fill="#FFFFFF"/><path d="M672.2 45.525C670.151 44.0564 667.919 42.8596 665.562 41.9644L665.562 49.125C666.495 49.125 667.25 49.8805 667.25 50.8125L667.25 58.125 674 58.125 674 49.125C673.971 47.7157 673.31 46.3941 672.2 45.525Z" stroke="#FFFFFF" stroke-width="0.5625" fill="#FFFFFF"/><path d="M644.75 58.125 644.75 50.8125C644.75 49.8805 645.505 49.125 646.438 49.125L646.438 41.9362C644.333 42.6636 642.342 43.6863 640.526 44.9738 640.529 45.0262 640.529 45.0788 640.526 45.1313L640.526 51.825C641.749 52.6928 642.483 54.0939 642.5 55.5938 642.497 56.4957 642.227 57.3767 641.724 58.125Z" stroke="#FFFFFF" stroke-width="0.5625" fill="#FFFFFF"/><path d="M639.417 52.4381 639.417 45.1256C639.422 44.9152 639.341 44.712 639.193 44.5631L637.331 42.7013 637.516 42.5156 637.398 41.6888 635.047 40.9856C634.153 39 632.504 37.9313 630.136 37.6106 630.665 39.7023 632.359 41.2975 634.479 41.7L635.159 43.95 635.986 44.0681 636.256 43.7925 637.899 45.4294 637.899 51.9544C637.745 51.9402 637.591 51.9346 637.438 51.9375 635.261 51.9375 634.062 51.9375 634.062 55.5938 634.062 59.25 635.261 59.25 637.438 59.25 639.534 59.326 641.296 57.69 641.375 55.5938 641.356 54.2609 640.603 53.0473 639.417 52.4381Z" stroke="#FFFFFF" stroke-width="0.5625" fill="#FFFFFF"/></g></svg>